<?xml version="1.0" encoding="utf-8"?>
<?xml-stylesheet type="text/xsl" href="rss1.xsl"?>
<rss version="2.0" xmlns:atom="http://www.w3.org/2005/Atom" xmlns:content="http://purl.org/rss/1.0/modules/content/" xmlns:dc="http://purl.org/dc/elements/1.1/" xmlns:media="http://search.yahoo.com/mrss/">
<channel>
 <title>Getty</title>
 <link>http://www.gettyimg.com/</link>
 <atom:link href="http://www.gettyimg.com/" rel="self" type="application/rss+xml" />

 
                <item>
                <title><![CDATA[【HD Live Performances】HDTV - Post Malone - Live @ The Town 2023 HDTV H264 1080i DD5.1-ilya2129]]></title>
                <link><![CDATA[https://sharemania.us/threads/post-malone-live-the-town-2023-hdtv-h264-1080i-dd5-1-ilya2129.227620/]]></link>
                <description><![CDATA[<article>
<blockquote class="messageText SelectQuoteContainer ugc baseHtml">
<div style="text-align: center"><img src="https://i122.fastpic.org/big/2023/0903/f2/ce9f496df0f384cc9c966a9eba2bd3f2.png" class="bbCodeImage LbImage" alt="[​IMG]" data-url="https://i122.fastpic.org/big/2023/0903/f2/ce9f496df0f384cc9c966a9eba2bd3f2.png" style=""><br>
<br>
<a href="https://postimg.cc/5HxGSfKZ" target="_blank" class="externalLink" rel="nofollow"><img src="https://i.postimg.cc/5HxGSfKZ/vlcsnap-2023-09-03-14h17m02s756.png" class="bbCodeImage LbImage" alt="[​IMG]" data-url="https://i.postimg.cc/5HxGSfKZ/vlcsnap-2023-09-03-14h17m02s756.png"></a> <a href="https://postimg.cc/JyPFTS9t" target="_blank" class="externalLink" rel="nofollow"><img src="https://i.postimg.cc/JyPFTS9t/vlcsnap-2023-09-03-14h17m04s264.png" class="bbCodeImage LbImage" alt="[​IMG]" data-url="https://i.postimg.cc/JyPFTS9t/vlcsnap-2023-09-03-14h17m04s264.png"></a> <a href="https://postimg.cc/RNKDrWjk" target="_blank" class="externalLink" rel="nofollow"><img src="https://i.postimg.cc/RNKDrWjk/vlcsnap-2023-09-03-14h17m06s180.png" class="bbCodeImage LbImage" alt="[​IMG]" data-url="https://i.postimg.cc/RNKDrWjk/vlcsnap-2023-09-03-14h17m06s180.png"></a> <a href="https://postimg.cc/8sq0nRnd" target="_blank" class="externalLink" rel="nofollow"><img src="https://i.postimg.cc/8sq0nRnd/vlcsnap-2023-09-03-14h17m08s848.png" class="bbCodeImage LbImage" alt="[​IMG]" data-url="https://i.postimg.cc/8sq0nRnd/vlcsnap-2023-09-03-14h17m08s848.png"></a> <a href="https://postimg.cc/G8t56qCK" target="_blank" class="externalLink" rel="nofollow"><img src="https://i.postimg.cc/G8t56qCK/vlcsnap-2023-09-03-14h17m12s907.png" class="bbCodeImage LbImage" alt="[​IMG]" data-url="https://i.postimg.cc/G8t56qCK/vlcsnap-2023-09-03-14h17m12s907.png"></a> <a href="https://postimg.cc/Rq3YRsGV" target="_blank" class="externalLink" rel="nofollow"><img src="https://i.postimg.cc/Rq3YRsGV/vlcsnap-2023-09-03-14h17m15s434.png" class="bbCodeImage LbImage" alt="[​IMG]" data-url="https://i.postimg.cc/Rq3YRsGV/vlcsnap-2023-09-03-14h17m15s434.png"></a> <a href="https://postimg.cc/rRtYwszt" target="_blank" class="externalLink" rel="nofollow"><img src="https://i.postimg.cc/rRtYwszt/vlcsnap-2023-09-03-14h17m18s540.png" class="bbCodeImage LbImage" alt="[​IMG]" data-url="https://i.postimg.cc/rRtYwszt/vlcsnap-2023-09-03-14h17m18s540.png"></a> <br>
<br>
<i><br>
Better Now<br>
Wow.<br>
Zack and Codeine<br>
Psycho<br>
Goodbyes<br>
Hollywood Dreams / Comedown<br>
Mourning<br>
I Like You (A Happier Song)<br>
Jonestown (Interlude)<br>
Take What You Want<br>
Over Now<br>
rockstar<br>
Feeling Whitney<br>
Stay<br>
Overdrive<br>
I Fall Apart<br>
Wrapped Around Your Finger<br>
Circles<br>
Candy Paint<br>
Too Young<br>
White Iverson<br>
Congratulations<br>
Encore:<br>
Broken Whiskey Glass<br>
Sunflower (Post Malone &amp; Swae Lee cover)<br>
Chemical<br>
</i><br>
​</div><br>
<div class="bbCodeBlock bbCodeCode">
<div class="type">Code:</div>
<pre>General
ID                                       : 1 (0x1)
Complete name                            : D:\Post Malone - Live @ The Town 2023 HDTV H264 1080i DD5.1-ilya2129.ts
Format                                   : MPEG-TS
File size                                : 10.4 GiB
Duration                                 : 1 h 43 min
Overall bit rate mode                    : Variable
Overall bit rate                         : 14.4 Mb/s
Frame rate                               : 29.970 FPS

Video
ID                                       : 302 (0x12E)
Menu ID                                  : 1 (0x1)
Format                                   : AVC
Format/Info                              : Advanced Video Codec
Format profile                           : High@L4
Format settings                          : CABAC / 4 Ref Frames
Format settings, CABAC                   : Yes
Format settings, Reference frames        : 4 frames
Codec ID                                 : 27
Duration                                 : 1 h 43 min
Bit rate mode                            : Variable
Bit rate                                 : 12.9 Mb/s
Maximum bit rate                         : 18.1 Mb/s
Width                                    : 1 920 pixels
Height                                   : 1 080 pixels
Display aspect ratio                     : 16:9
Frame rate                               : 29.970 (30000/1001) FPS
Standard                                 : Component
Color space                              : YUV
Chroma subsampling                       : 4:2:0
Bit depth                                : 8 bits
Scan type                                : MBAFF
Scan type, store method                  : Interleaved fields
Scan order                               : Top Field First
Bits/(Pixel*Frame)                       : 0.207
Stream size                              : 9.31 GiB (90%)
Color range                              : Limited
Color primaries                          : BT.709
Transfer characteristics                 : BT.709
Matrix coefficients                      : BT.709

Audio #1
ID                                       : 303 (0x12F)
Menu ID                                  : 1 (0x1)
Format                                   : AC-3
Format/Info                              : Audio Coding 3
Commercial name                          : Dolby Digital
Codec ID                                 : 129
Duration                                 : 1 h 43 min
Bit rate mode                            : Constant
Bit rate                                 : 384 kb/s
Maximum bit rate                         : 395 kb/s
Channel(s)                               : 6 channels
Channel layout                           : L R C LFE Ls Rs
Sampling rate                            : 48.0 kHz
Frame rate                               : 31.250 FPS (1536 SPF)
Compression mode                         : Lossy
Delay relative to video                  : 12 ms
Stream size                              : 284 MiB (3%)
Language                                 : Portuguese
Service kind                             : Complete Main

Audio #2
ID                                       : 304 (0x130)
Menu ID                                  : 1 (0x1)
Format                                   : MPEG Audio
Format version                           : Version 1
Format profile                           : Layer 2
Codec ID                                 : 4
Duration                                 : 1 h 43 min
Bit rate mode                            : Constant
Bit rate                                 : 192 kb/s
Maximum bit rate                         : 207 kb/s
Channel(s)                               : 2 channels
Sampling rate                            : 48.0 kHz
Frame rate                               : 41.667 FPS (1152 SPF)
Compression mode                         : Lossy
Delay relative to video                  : 22 ms
Stream size                              : 142 MiB (1%)
Language                                 : Portuguese

Audio #3
ID                                       : 305 (0x131)
Menu ID                                  : 1 (0x1)
Format                                   : MPEG Audio
Format version                           : Version 1
Format profile                           : Layer 2
Codec ID                                 : 4
Duration                                 : 1 h 43 min
Bit rate mode                            : Constant
Bit rate                                 : 192 kb/s
Maximum bit rate                         : 207 kb/s
Channel(s)                               : 2 channels
Sampling rate                            : 48.0 kHz
Frame rate                               : 41.667 FPS (1152 SPF)
Compression mode                         : Lossy
Delay relative to video                  : 22 ms
Stream size                              : 142 MiB (1%)
Language                                 : English


</pre>
</div>
<div class="bbCodeBlock bbCodeVfcHH HiddenContent">
<div class="attribution type">Hidden Content:</div>
<blockquote>You must reply before you can see the hidden data contained here.</blockquote>
</div>
<div class="messageTextEndMarker">&nbsp;</div>
</blockquote>
</article>]]></description>
                <author><![CDATA[ilya2129]]></author>
                </item>

                
                <item>
                <title><![CDATA[【Singles (lossy)】MP3 - Merry Christmas Antena 1 (2021) (fan Made)]]></title>
                <link><![CDATA[https://sharemania.us/threads/merry-christmas-antena-1-2021-fan-made.227619/]]></link>
                <description><![CDATA[<article>
<blockquote class="messageText SelectQuoteContainer ugc baseHtml">
<div style="text-align: center"><img src="https://archive.org/download/merry-christmas-antena-1-2021-fan-made/antena%201%20natal%20by%20novak.jpg" class="bbCodeImage LbImage" alt="[​IMG]" data-url="https://archive.org/download/merry-christmas-antena-1-2021-fan-made/antena%201%20natal%20by%20novak.jpg" style="">​</div><i><b><span style="font-size: 12px"><br>
Disc # 1</span></b></i><br>
<ol>
<li><span style="font-size: 12px"><b>Enya</b> - Oíche Chiúin (Silent Night)</span></li>
<li><span style="font-size: 12px"><b>Celine Dion </b>- Adeste Fideles (O Come All Ye Faithful)</span></li>
<li><span style="font-size: 12px"><b>Jewel</b> - Hark! The Herald Angels Sing</span></li>
<li><span style="font-size: 12px"><b>Andrea Bocelli </b>- Santa Claus Is Coming To Town</span></li>
<li><span style="font-size: 12px"><b>Michael Bublé Duet With Thalia</b> - Mis Deseos Feliz Navidad</span></li>
<li><span style="font-size: 12px"><b>John Williams</b> - O Holy Night</span></li>
<li><span style="font-size: 12px"><b>Boney M. </b>- Joy To The World</span></li>
<li><span style="font-size: 12px"><b>Kylie Minogue</b> - Christmas Isn't Christmas 'Til You Get Here</span></li>
<li><span style="font-size: 12px"><b>Hall &amp; Oates </b>- Jingle Bell Rock</span></li>
<li><span style="font-size: 12px"><b>Mariah Carey</b> - All I Want For Christmas Is You</span></li>
<li><span style="font-size: 12px"><b>Christina Aguilera</b> - Christmas Time</span></li>
<li><span style="font-size: 12px"><b>Spice Girls</b> - Christimas Wrapping</span></li>
<li><span style="font-size: 12px"><b>Backstreet Boys </b>- Christmas Time</span></li>
<li><span style="font-size: 12px"><b>Michael Bolton </b>- Our Love Is Like A Holiday</span></li>
</ol><i><b><span style="font-size: 12px">Disc # 2</span></b></i><br>
<ol>
<li><span style="font-size: 12px"><b>Laura Pausini with The Patrick Williams Orchestra</b> - Jingle Bell Rock</span></li>
<li><span style="font-size: 12px"><b>New Kids On The Block</b> - Merry Merry Christmas</span></li>
<li><span style="font-size: 12px"><b>Maroon 5 </b>- Happy Christmas (War is Over)</span></li>
<li><span style="font-size: 12px"><b>Jamelia</b> - Last Christmas</span></li>
<li><span style="font-size: 12px"><b>Michael Bublé</b> - It's Beginning To Look A Lot Like Christmas</span></li>
<li><span style="font-size: 12px"><b>Britney Spears</b> - My Only Wish (This Year)</span></li>
<li><span style="font-size: 12px"><b>Gloria Estefan</b> - Christmas Through Your Eyes</span></li>
<li><span style="font-size: 12px"><b>Leann Rimes </b>- I Miss You Like Christmas</span></li>
<li><span style="font-size: 12px"><b>Kelly Rowland </b>- Wondeful Christmas Time</span></li>
<li><span style="font-size: 12px"><b>Bananarama </b>- Baby It's Christmas</span></li>
<li><span style="font-size: 12px"><b>Aqua </b>- Spin Me A Christmas</span></li>
<li><span style="font-size: 12px"><b>'N Sync</b> - Merry Christmas, Happy Holidays</span></li>
<li><span style="font-size: 12px"><b>The Pussycat Dolls</b> - Santa Baby</span></li>
<li><span style="font-size: 12px"><b>Toni Braxton</b> - Holiday Celebrate</span></li>
</ol><div style="text-align: center"><br>
<div class="bbCodeBlock bbCodeVfcHH HiddenContent">
<div class="attribution type">Hidden Content:</div>
<blockquote>You must either reply or click 'Like' to see the hidden information contained here.</blockquote>
</div></div>
<div class="messageTextEndMarker">&nbsp;</div>
</blockquote>
</article>]]></description>
                <author><![CDATA[Fan Made]]></author>
                </item>

                
                <item>
                <title><![CDATA[【HD Live Performances】HDTV - Iggy Azalea - Live @ The Town 2023 HDTV H264 1080i DD5.1-ilya2129]]></title>
                <link><![CDATA[https://sharemania.us/threads/iggy-azalea-live-the-town-2023-hdtv-h264-1080i-dd5-1-ilya2129.227616/]]></link>
                <description><![CDATA[<article>
<blockquote class="messageText SelectQuoteContainer ugc baseHtml">
<div style="text-align: center"><img src="https://i122.fastpic.org/big/2023/0903/f2/ce9f496df0f384cc9c966a9eba2bd3f2.png" class="bbCodeImage LbImage" alt="[​IMG]" data-url="https://i122.fastpic.org/big/2023/0903/f2/ce9f496df0f384cc9c966a9eba2bd3f2.png" style=""><br>
<br>
<a href="https://postimg.cc/c66gCYhn" target="_blank" class="externalLink" rel="nofollow"><img src="https://i.postimg.cc/c66gCYhn/vlcsnap-2023-09-03-14h09m31s671.png" class="bbCodeImage LbImage" alt="[​IMG]" data-url="https://i.postimg.cc/c66gCYhn/vlcsnap-2023-09-03-14h09m31s671.png"></a> <a href="https://postimg.cc/tZsqqdbR" target="_blank" class="externalLink" rel="nofollow"><img src="https://i.postimg.cc/tZsqqdbR/vlcsnap-2023-09-03-14h09m33s870.png" class="bbCodeImage LbImage" alt="[​IMG]" data-url="https://i.postimg.cc/tZsqqdbR/vlcsnap-2023-09-03-14h09m33s870.png"></a> <a href="https://postimg.cc/V0MzMY53" target="_blank" class="externalLink" rel="nofollow"><img src="https://i.postimg.cc/V0MzMY53/vlcsnap-2023-09-03-14h09m37s380.png" class="bbCodeImage LbImage" alt="[​IMG]" data-url="https://i.postimg.cc/V0MzMY53/vlcsnap-2023-09-03-14h09m37s380.png"></a> <a href="https://postimg.cc/yWS12Tnv" target="_blank" class="externalLink" rel="nofollow"><img src="https://i.postimg.cc/yWS12Tnv/vlcsnap-2023-09-03-14h09m40s144.png" class="bbCodeImage LbImage" alt="[​IMG]" data-url="https://i.postimg.cc/yWS12Tnv/vlcsnap-2023-09-03-14h09m40s144.png"></a> <a href="https://postimg.cc/gwScbSfB" target="_blank" class="externalLink" rel="nofollow"><img src="https://i.postimg.cc/gwScbSfB/vlcsnap-2023-09-03-14h09m43s396.png" class="bbCodeImage LbImage" alt="[​IMG]" data-url="https://i.postimg.cc/gwScbSfB/vlcsnap-2023-09-03-14h09m43s396.png"></a> <a href="https://postimg.cc/ppbWvn6x" target="_blank" class="externalLink" rel="nofollow"><img src="https://i.postimg.cc/ppbWvn6x/vlcsnap-2023-09-03-14h09m45s953.png" class="bbCodeImage LbImage" alt="[​IMG]" data-url="https://i.postimg.cc/ppbWvn6x/vlcsnap-2023-09-03-14h09m45s953.png"></a> <br>
<br>
<i><br>
Brazil<br>
Work<br>
Iam the Stripclub<br>
Sally Walker<br>
Team<br>
Black Widow<br>
Impossible Is Nothing<br>
Started<br>
Goddess<br>
Peach Body<br>
Money Come<br>
Kream<br>
Sex on the Beach<br>
Just Wanna<br>
Problem (Ariana Grande cover)<br>
Nights Like This<br>
Fancy<br>
</i><br>
​</div><br>
<div class="bbCodeBlock bbCodeCode">
<div class="type">Code:</div>
<pre>General
ID                                       : 1 (0x1)
Complete name                            : D:\Iggy Azalea - Live @ The Town 2023 HDTV H264 1080i DD5.1-ilya2129.ts
Format                                   : MPEG-TS
File size                                : 3.08 GiB
Duration                                 : 43 min 7 s
Overall bit rate mode                    : Variable
Overall bit rate                         : 10.2 Mb/s
Frame rate                               : 29.970 FPS

Video
ID                                       : 302 (0x12E)
Menu ID                                  : 1 (0x1)
Format                                   : AVC
Format/Info                              : Advanced Video Codec
Format profile                           : High@L4
Format settings                          : CABAC / 4 Ref Frames
Format settings, CABAC                   : Yes
Format settings, Reference frames        : 4 frames
Codec ID                                 : 27
Duration                                 : 43 min 7 s
Bit rate mode                            : Variable
Bit rate                                 : 8 944 kb/s
Maximum bit rate                         : 18.1 Mb/s
Width                                    : 1 920 pixels
Height                                   : 1 080 pixels
Display aspect ratio                     : 16:9
Frame rate                               : 29.970 (30000/1001) FPS
Standard                                 : Component
Color space                              : YUV
Chroma subsampling                       : 4:2:0
Bit depth                                : 8 bits
Scan type                                : MBAFF
Scan type, store method                  : Interleaved fields
Scan order                               : Top Field First
Bits/(Pixel*Frame)                       : 0.144
Stream size                              : 2.69 GiB (87%)
Color range                              : Limited
Color primaries                          : BT.709
Transfer characteristics                 : BT.709
Matrix coefficients                      : BT.709

Audio #1
ID                                       : 303 (0x12F)
Menu ID                                  : 1 (0x1)
Format                                   : AC-3
Format/Info                              : Audio Coding 3
Commercial name                          : Dolby Digital
Codec ID                                 : 129
Duration                                 : 43 min 7 s
Bit rate mode                            : Constant
Bit rate                                 : 384 kb/s
Maximum bit rate                         : 395 kb/s
Channel(s)                               : 6 channels
Channel layout                           : L R C LFE Ls Rs
Sampling rate                            : 48.0 kHz
Frame rate                               : 31.250 FPS (1536 SPF)
Compression mode                         : Lossy
Delay relative to video                  : 21 ms
Stream size                              : 118 MiB (4%)
Language                                 : Portuguese
Service kind                             : Complete Main

Audio #2
ID                                       : 304 (0x130)
Menu ID                                  : 1 (0x1)
Format                                   : MPEG Audio
Format version                           : Version 1
Format profile                           : Layer 2
Codec ID                                 : 4
Duration                                 : 43 min 7 s
Bit rate mode                            : Constant
Bit rate                                 : 192 kb/s
Maximum bit rate                         : 207 kb/s
Channel(s)                               : 2 channels
Sampling rate                            : 48.0 kHz
Frame rate                               : 41.667 FPS (1152 SPF)
Compression mode                         : Lossy
Delay relative to video                  : 8 ms
Stream size                              : 59.2 MiB (2%)
Language                                 : Portuguese

Audio #3
ID                                       : 305 (0x131)
Menu ID                                  : 1 (0x1)
Format                                   : MPEG Audio
Format version                           : Version 1
Format profile                           : Layer 2
Codec ID                                 : 4
Duration                                 : 43 min 7 s
Bit rate mode                            : Constant
Bit rate                                 : 192 kb/s
Maximum bit rate                         : 207 kb/s
Channel(s)                               : 2 channels
Sampling rate                            : 48.0 kHz
Frame rate                               : 41.667 FPS (1152 SPF)
Compression mode                         : Lossy
Delay relative to video                  : 8 ms
Stream size                              : 59.2 MiB (2%)
Language                                 : English
</pre>
</div>
<div class="bbCodeBlock bbCodeVfcHH HiddenContent">
<div class="attribution type">Hidden Content:</div>
<blockquote>You must reply before you can see the hidden data contained here.</blockquote>
</div>
<div class="messageTextEndMarker">&nbsp;</div>
</blockquote>
</article>]]></description>
                <author><![CDATA[ilya2129]]></author>
                </item>

                
                <item>
                <title><![CDATA[【HD Live Performances】UHDTV 4K - Iggy Azalea - Live @ The Town 2023 UHDTV H265 2160p DD2.0-ilya2129]]></title>
                <link><![CDATA[https://sharemania.us/threads/iggy-azalea-live-the-town-2023-uhdtv-h265-2160p-dd2-0-ilya2129.227622/]]></link>
                <description><![CDATA[<article>
<blockquote class="messageText SelectQuoteContainer ugc baseHtml">
<div style="text-align: center"><img src="https://i122.fastpic.org/big/2023/0903/f2/ce9f496df0f384cc9c966a9eba2bd3f2.png" class="bbCodeImage LbImage" alt="[​IMG]" data-url="https://i122.fastpic.org/big/2023/0903/f2/ce9f496df0f384cc9c966a9eba2bd3f2.png" style=""><br>
<br>
<a href="https://postimg.cc/ns3HvR2G" target="_blank" class="externalLink" rel="nofollow"><img src="https://i.postimg.cc/ns3HvR2G/vlcsnap-2023-09-03-14h22m12s623.png" class="bbCodeImage LbImage" alt="[​IMG]" data-url="https://i.postimg.cc/ns3HvR2G/vlcsnap-2023-09-03-14h22m12s623.png"></a> <a href="https://postimg.cc/RWXr83tM" target="_blank" class="externalLink" rel="nofollow"><img src="https://i.postimg.cc/RWXr83tM/vlcsnap-2023-09-03-14h22m14s701.png" class="bbCodeImage LbImage" alt="[​IMG]" data-url="https://i.postimg.cc/RWXr83tM/vlcsnap-2023-09-03-14h22m14s701.png"></a> <a href="https://postimg.cc/mc5vL0VJ" target="_blank" class="externalLink" rel="nofollow"><img src="https://i.postimg.cc/mc5vL0VJ/vlcsnap-2023-09-03-14h22m16s963.png" class="bbCodeImage LbImage" alt="[​IMG]" data-url="https://i.postimg.cc/mc5vL0VJ/vlcsnap-2023-09-03-14h22m16s963.png"></a> <a href="https://postimg.cc/xqz2CTwR" target="_blank" class="externalLink" rel="nofollow"><img src="https://i.postimg.cc/xqz2CTwR/vlcsnap-2023-09-03-14h22m18s808.png" class="bbCodeImage LbImage" alt="[​IMG]" data-url="https://i.postimg.cc/xqz2CTwR/vlcsnap-2023-09-03-14h22m18s808.png"></a> <a href="https://postimg.cc/GBt01cPv" target="_blank" class="externalLink" rel="nofollow"><img src="https://i.postimg.cc/GBt01cPv/vlcsnap-2023-09-03-14h22m21s383.png" class="bbCodeImage LbImage" alt="[​IMG]" data-url="https://i.postimg.cc/GBt01cPv/vlcsnap-2023-09-03-14h22m21s383.png"></a> <a href="https://postimg.cc/yg3wkvbd" target="_blank" class="externalLink" rel="nofollow"><img src="https://i.postimg.cc/yg3wkvbd/vlcsnap-2023-09-03-14h22m24s383.png" class="bbCodeImage LbImage" alt="[​IMG]" data-url="https://i.postimg.cc/yg3wkvbd/vlcsnap-2023-09-03-14h22m24s383.png"></a> <a href="https://postimg.cc/565WBKNQ" target="_blank" class="externalLink" rel="nofollow"><img src="https://i.postimg.cc/565WBKNQ/vlcsnap-2023-09-03-14h22m26s417.png" class="bbCodeImage LbImage" alt="[​IMG]" data-url="https://i.postimg.cc/565WBKNQ/vlcsnap-2023-09-03-14h22m26s417.png"></a> <br>
<br>
<i><br>
Brazil<br>
Work<br>
Iam the Stripclub<br>
Sally Walker<br>
Team<br>
Black Widow<br>
Impossible Is Nothing<br>
Started<br>
Goddess<br>
Peach Body<br>
Money Come<br>
Kream<br>
Sex on the Beach<br>
Just Wanna<br>
Problem (Ariana Grande cover)<br>
Nights Like This<br>
Fancy<br>
</i><br>
​</div><br>
<div class="bbCodeBlock bbCodeCode">
<div class="type">Code:</div>
<pre>General
ID                                       : 1 (0x1)
Complete name                            : D:\Iggy Azalea - Live @ The Town 2023 UHDTV H265 2160p DD2.0-ilya2129.ts
Format                                   : MPEG-TS
File size                                : 5.01 GiB
Duration                                 : 43 min 9 s
Overall bit rate mode                    : Variable
Overall bit rate                         : 16.6 Mb/s
Frame rate                               : 59.940 FPS

Video
ID                                       : 302 (0x12E)
Menu ID                                  : 1 (0x1)
Format                                   : HEVC
Format/Info                              : High Efficiency Video Coding
Format profile                           : Main 10@L5.1@Main
Codec ID                                 : 36
Duration                                 : 43 min 8 s
Bit rate                                 : 15.6 Mb/s
Maximum bit rate                         : 16.4 Mb/s
Width                                    : 3 840 pixels
Height                                   : 2 160 pixels
Display aspect ratio                     : 16:9
Frame rate                               : 59.940 (60000/1001) FPS
Color space                              : YUV
Chroma subsampling                       : 4:2:0 (Type 0)
Bit depth                                : 10 bits
Bits/(Pixel*Frame)                       : 0.031
Stream size                              : 4.70 GiB (94%)
Color range                              : Limited
Color primaries                          : BT.709
Transfer characteristics                 : BT.709
Matrix coefficients                      : BT.709

Audio
ID                                       : 303 (0x12F)
Menu ID                                  : 1 (0x1)
Format                                   : AC-3
Format/Info                              : Audio Coding 3
Commercial name                          : Dolby Digital
Codec ID                                 : 6
Duration                                 : 43 min 8 s
Bit rate mode                            : Constant
Bit rate                                 : 192 kb/s
Maximum bit rate                         : 203 kb/s
Channel(s)                               : 2 channels
Channel layout                           : L R
Sampling rate                            : 48.0 kHz
Frame rate                               : 31.250 FPS (1536 SPF)
Compression mode                         : Lossy
Delay relative to video                  : 18 ms
Stream size                              : 59.3 MiB (1%)
Language                                 : Portuguese
Service kind                             : Complete Main

</pre>
</div>
<div class="bbCodeBlock bbCodeVfcHH HiddenContent">
<div class="attribution type">Hidden Content:</div>
<blockquote>You must reply before you can see the hidden data contained here.</blockquote>
</div>
<div class="messageTextEndMarker">&nbsp;</div>
</blockquote>
</article>]]></description>
                <author><![CDATA[ilya2129]]></author>
                </item>

                
                <item>
                <title><![CDATA[【Singles (lossy)】MP3 - Faixas Exclusivas ANTENA 1 (FAN MADE) (2023)]]></title>
                <link><![CDATA[https://sharemania.us/threads/faixas-exclusivas-antena-1-fan-made-2023.227617/]]></link>
                <description><![CDATA[<article>
<blockquote class="messageText SelectQuoteContainer ugc baseHtml">
<div style="text-align: center"><img src="https://live.staticflickr.com/65535/52508116035_ce307c519f_b.jpg" class="bbCodeImage LbImage" alt="[​IMG]" data-url="https://live.staticflickr.com/65535/52508116035_ce307c519f_b.jpg" style=""> ​</div>CD 1<br>
<br>
1. Catcall - Satellites<br>
2. Lena - Neon (Lonely People)<br>
3. Wanting - Jar Of Love<br>
4. Jim Brickman/Mark Schultz - Until I See You Again<br>
5. Shayne Ward - No Promises<br>
6. Elliott Yamin - Wait for You<br>
7. Vitaa &amp; Slimane - Je Te Le Donne<br>
8. Léon - Tired Of Talking<br>
9. Dua Lipa - Be the One<br>
10. X-Static - Here With Me<br>
11. Gabin/Mia Cooper - The Alchemist<br>
12. Paradise - That's The Way It Goes<br>
13. Anggun - I'll Be Alright<br>
14. Simon Webbe - After All This Time<br>
15. Monges Budistas - My Spirit Flies To You<br>
16. Les Dix Commandements - Le Dilemme<br>
17. Josh Groban - Brave<br>
18. Ella Henderson - Ghost (Oliver Nelson Remix)<br>
<br>
CD 2<br>
<br>
1. Faouzia &amp; John Legend - Minefields<br>
2. Monrose - Even Heaven Cries<br>
3. Samantha James - Satellites<br>
4. Marie Picasso - Out Of My Hands<br>
5. The Wallflowers - I Started A Joke<br>
6. Vaults - One Last Night<br>
7. Todd Rundgren - Afterlife<br>
8. Jesse &amp; Joy - Echoes Of Love<br>
9. The Lylas - Come Back<br>
10. Girl's Day - Something<br>
11. Emmelie De Forest - OnlyTeardrops<br>
12. Kaiser Chiefs - Parachute<br>
13. Joan Osborne - I'll Be Around<br>
14. Cher - Still<br>
15. Hurts - Wonderful Life<br>
16. Izzy Bizu feat. Honne - Someone That Loves You<br>
17. Tor Miller - Carter &amp; Cash<br>
18. Kings Of Convenience - I'd Rather Dance With You (Radio Mix)<br>
<br>
<div style="text-align: center">
<div class="bbCodeBlock bbCodeVfcHH HiddenContent">
<div class="attribution type">Hidden Content:</div>
<blockquote>You must either reply or click 'Like' to see the hidden information contained here.</blockquote>
</div></div>
<div class="messageTextEndMarker">&nbsp;</div>
</blockquote>
</article>]]></description>
                <author><![CDATA[Fan Made]]></author>
                </item>

                
                <item>
                <title><![CDATA[【Singles (lossy)】MP3 - AS Mais Pedidas Pelos Ouvintes ANTENA 1 (Fan Made) (2023)]]></title>
                <link><![CDATA[https://sharemania.us/threads/as-mais-pedidas-pelos-ouvintes-antena-1-fan-made-2023.227621/]]></link>
                <description><![CDATA[<article>
<blockquote class="messageText SelectQuoteContainer ugc baseHtml">
<div style="text-align: center"><img src="https://i.postimg.cc/wvdm74Xb/by-novak-pedidas-2023.jpg" class="bbCodeImage LbImage" alt="[​IMG]" data-url="https://i.postimg.cc/wvdm74Xb/by-novak-pedidas-2023.jpg" style=""> ​</div><span style="font-family: 'Trebuchet MS'"><span style="font-size: 12px">Janet Jackson - Together Again<br>
Britney Spears - I'm Not A Girl, Not Yet A Woman<br>
Gabin feat. Mia Cooper - The Alchemist<br>
Emmelie de Forest - Only Teardrops<br>
Christopher Cross - Sailing<br>
Mike &amp; The Mechanics - Don't Know What Came Over Me<br>
Gary Wright - Really Wanna Know You<br>
Elliott Yamin - Wait For You<br>
Rob Thomas - Little Wonders<br>
Monrose - Even Heaven Cries<br>
Faouzia &amp; John Legend - Minefields<br>
Dua Lipa &amp; Angèle - Fever<br>
Valentina Parisse - Feel Like Runnin'<br>
Mr. Mister - Broken Wings<br>
Benjamin Orr - Stay In The Night<br>
Carly Simon - Why<br>
The Bolshoi - Sunday Morning<br>
Emma Bunton - What Took You So Long?</span></span><br>
<div style="text-align: center">
<div class="bbCodeBlock bbCodeVfcHH HiddenContent">
<div class="attribution type">Hidden Content:</div>
<blockquote>You must either reply or click 'Like' to see the hidden information contained here.</blockquote>
</div></div>
<div class="messageTextEndMarker">&nbsp;</div>
</blockquote>
</article>]]></description>
                <author><![CDATA[Fan Made]]></author>
                </item>

                
                <item>
                <title><![CDATA[【HD Live Performances】HDTV - Demi Lovato - Live @ The Town 2023 HDTV H264 1080i DD5.1-ilya2129]]></title>
                <link><![CDATA[https://sharemania.us/threads/demi-lovato-live-the-town-2023-hdtv-h264-1080i-dd5-1-ilya2129.227618/]]></link>
                <description><![CDATA[<article>
<blockquote class="messageText SelectQuoteContainer ugc baseHtml">
<div style="text-align: center"><img src="https://i122.fastpic.org/big/2023/0903/f2/ce9f496df0f384cc9c966a9eba2bd3f2.png" class="bbCodeImage LbImage" alt="[​IMG]" data-url="https://i122.fastpic.org/big/2023/0903/f2/ce9f496df0f384cc9c966a9eba2bd3f2.png" style=""><br>
<br>
<a href="https://postimg.cc/r0MHgMhB" target="_blank" class="externalLink" rel="nofollow"><img src="https://i.postimg.cc/r0MHgMhB/vlcsnap-2023-09-03-14h12m32s218.png" class="bbCodeImage LbImage" alt="[​IMG]" data-url="https://i.postimg.cc/r0MHgMhB/vlcsnap-2023-09-03-14h12m32s218.png"></a> <a href="https://postimg.cc/s1f8hfGS" target="_blank" class="externalLink" rel="nofollow"><img src="https://i.postimg.cc/s1f8hfGS/vlcsnap-2023-09-03-14h12m34s363.png" class="bbCodeImage LbImage" alt="[​IMG]" data-url="https://i.postimg.cc/s1f8hfGS/vlcsnap-2023-09-03-14h12m34s363.png"></a> <a href="https://postimg.cc/DWKpy7KS" target="_blank" class="externalLink" rel="nofollow"><img src="https://i.postimg.cc/DWKpy7KS/vlcsnap-2023-09-03-14h12m36s349.png" class="bbCodeImage LbImage" alt="[​IMG]" data-url="https://i.postimg.cc/DWKpy7KS/vlcsnap-2023-09-03-14h12m36s349.png"></a> <a href="https://postimg.cc/kDjHFrWH" target="_blank" class="externalLink" rel="nofollow"><img src="https://i.postimg.cc/kDjHFrWH/vlcsnap-2023-09-03-14h12m39s245.png" class="bbCodeImage LbImage" alt="[​IMG]" data-url="https://i.postimg.cc/kDjHFrWH/vlcsnap-2023-09-03-14h12m39s245.png"></a> <a href="https://postimg.cc/YhZyZ1nf" target="_blank" class="externalLink" rel="nofollow"><img src="https://i.postimg.cc/YhZyZ1nf/vlcsnap-2023-09-03-14h12m42s139.png" class="bbCodeImage LbImage" alt="[​IMG]" data-url="https://i.postimg.cc/YhZyZ1nf/vlcsnap-2023-09-03-14h12m42s139.png"></a> <a href="https://postimg.cc/yDRrHk2q" target="_blank" class="externalLink" rel="nofollow"><img src="https://i.postimg.cc/yDRrHk2q/vlcsnap-2023-09-03-14h12m45s333.png" class="bbCodeImage LbImage" alt="[​IMG]" data-url="https://i.postimg.cc/yDRrHk2q/vlcsnap-2023-09-03-14h12m45s333.png"></a> <br>
<br>
<i><br>
Confident (Rock version)<br>
HOLY FVCK<br>
FREAK<br>
EAT ME<br>
SWINE<br>
SUBSTANCE<br>
La La Land (Rock version)<br>
Don't Forget<br>
Give Your Heart a Break (Rock version)<br>
Tell Me You Love Me(Rock version)<br>
Neon Lights (Rock version – Audience request)<br>
Sorry Not Sorry (Rock version)<br>
Penhasco2 (Luísa Sonza cover) (with Luísa Sonza) (Live debut)<br>
Skyscraper<br>
29<br>
SKIN OF MY TEETH<br>
Heart Attack (Rock version – Audience acapella intro)<br>
Cool for the Summer (Rock version - Extended outro)<br>
</i><br>
​</div><br>
<div class="bbCodeBlock bbCodeCode">
<div class="type">Code:</div>
<pre>General
ID                                       : 1 (0x1)
Complete name                            : D:\Demi Lovato - Live @ The Town 2023 HDTV H264 1080i DD5.1-ilya2129.ts
Format                                   : MPEG-TS
File size                                : 6.86 GiB
Duration                                 : 1 h 8 min
Overall bit rate mode                    : Variable
Overall bit rate                         : 14.2 Mb/s
Frame rate                               : 29.970 FPS

Video
ID                                       : 302 (0x12E)
Menu ID                                  : 1 (0x1)
Format                                   : AVC
Format/Info                              : Advanced Video Codec
Format profile                           : High@L4
Format settings                          : CABAC / 4 Ref Frames
Format settings, CABAC                   : Yes
Format settings, Reference frames        : 4 frames
Format settings, GOP                     : M=4, N=32
Codec ID                                 : 27
Duration                                 : 1 h 8 min
Bit rate mode                            : Variable
Bit rate                                 : 12.8 Mb/s
Maximum bit rate                         : 18.1 Mb/s
Width                                    : 1 920 pixels
Height                                   : 1 080 pixels
Display aspect ratio                     : 16:9
Frame rate                               : 29.970 (30000/1001) FPS
Standard                                 : Component
Color space                              : YUV
Chroma subsampling                       : 4:2:0
Bit depth                                : 8 bits
Scan type                                : MBAFF
Scan type, store method                  : Interleaved fields
Scan order                               : Top Field First
Bits/(Pixel*Frame)                       : 0.205
Stream size                              : 6.15 GiB (90%)
Color range                              : Limited
Color primaries                          : BT.709
Transfer characteristics                 : BT.709
Matrix coefficients                      : BT.709

Audio #1
ID                                       : 303 (0x12F)
Menu ID                                  : 1 (0x1)
Format                                   : AC-3
Format/Info                              : Audio Coding 3
Commercial name                          : Dolby Digital
Codec ID                                 : 129
Duration                                 : 1 h 8 min
Bit rate mode                            : Constant
Bit rate                                 : 384 kb/s
Maximum bit rate                         : 395 kb/s
Channel(s)                               : 6 channels
Channel layout                           : L R C LFE Ls Rs
Sampling rate                            : 48.0 kHz
Frame rate                               : 31.250 FPS (1536 SPF)
Compression mode                         : Lossy
Delay relative to video                  : 32 ms
Stream size                              : 189 MiB (3%)
Language                                 : Portuguese
Service kind                             : Complete Main

Audio #2
ID                                       : 304 (0x130)
Menu ID                                  : 1 (0x1)
Format                                   : MPEG Audio
Format version                           : Version 1
Format profile                           : Layer 2
Codec ID                                 : 4
Duration                                 : 1 h 8 min
Bit rate mode                            : Constant
Bit rate                                 : 192 kb/s
Maximum bit rate                         : 207 kb/s
Channel(s)                               : 2 channels
Sampling rate                            : 48.0 kHz
Frame rate                               : 41.667 FPS (1152 SPF)
Compression mode                         : Lossy
Delay relative to video                  : 10 ms
Stream size                              : 94.7 MiB (1%)
Language                                 : Portuguese

Audio #3
ID                                       : 305 (0x131)
Menu ID                                  : 1 (0x1)
Format                                   : MPEG Audio
Format version                           : Version 1
Format profile                           : Layer 2
Codec ID                                 : 4
Duration                                 : 1 h 8 min
Bit rate mode                            : Constant
Bit rate                                 : 192 kb/s
Maximum bit rate                         : 207 kb/s
Channel(s)                               : 2 channels
Sampling rate                            : 48.0 kHz
Frame rate                               : 41.667 FPS (1152 SPF)
Compression mode                         : Lossy
Delay relative to video                  : 10 ms
Stream size                              : 94.7 MiB (1%)
Language                                 : English

</pre>
</div>
<div class="bbCodeBlock bbCodeVfcHH HiddenContent">
<div class="attribution type">Hidden Content:</div>
<blockquote>You must reply before you can see the hidden data contained here.</blockquote>
</div>
<div class="messageTextEndMarker">&nbsp;</div>
</blockquote>
</article>]]></description>
                <author><![CDATA[ilya2129]]></author>
                </item>

                </channel></rss>